<?xml version="1.0" encoding="utf-8"?>
<!-- Generator: Adobe Illustrator 20.0.0, SVG Export Plug-In . SVG Version: 6.00 Build 0)  -->
<svg version="1.1" id="Layer_1" xmlns="http://www.w3.org/2000/svg" xmlns:xlink="http://www.w3.org/1999/xlink" x="0px" y="0px"
	 viewBox="0 0 496 496" style="enable-background:new 0 0 496 496;" xml:space="preserve">
<style type="text/css">
	.st0{fill:#969696;stroke:#000000;stroke-width:2;stroke-miterlimit:10;}
</style>
<title>times-circle-icon</title>
<path class="st0" d="M248,0C111,0,0,111,0,248s111,248,248,248s248-111,248-248S385,0,248,0z M369.5,313c4.7,4.7,4.7,12.4,0,17.1
	l-39.2,39.2c-4.7,4.7-12.4,4.7-17.1,0l-65.1-65.1L183,369.3c-4.7,4.7-12.4,4.7-17.1,0l-39.2-39.2c-4.7-4.7-4.7-12.4,0-17.1
	l65.1-65.1l-65.1-65.1c-4.7-4.7-4.7-12.4,0-17.1l39.2-39.2c4.7-4.7,12.4-4.7,17.1,0l65.1,65.1l65.1-65.1c4.7-4.7,12.4-4.7,17.1,0
	l39.2,39.2c4.7,4.7,4.7,12.4,0,17.1l-65.1,65.1L369.5,313z"/>
</svg>
